<?xml version="1.0" encoding="UTF-8"?><svg version="1.1" xmlns="http://www.w3.org/2000/svg" xmlns:xlink="http://www.w3.org/1999/xlink" viewBox="0 0 1500 1500" width="1500" height="1500" x="0px" y="0px">
    
    
    <!-- ITEM 0 -->
    <g>
        <defs>
            <clipPath id="clip-path-id-viewbox-item-0">
                <rect x="0.0" y="0.0" width="160.059" height="62.405"/>
            </clipPath>
        </defs>
        <g transform="translate(1431.0 171.0) rotate(0.0 -169.0 65.5) scale(-2.111721302769604 2.0991907699703547)">
            <g clip-path="url(#clip-path-id-viewbox-item-0)" transform="translate(-0.0 -0.0)">
                <defs><linearGradient id="linear-gradient-i0" x1="6010.49" y1="1322.02" x2="6010.49" y2="1264.345" gradientTransform="matrix(1, 0, 0, -1, -5930.46, 1322.378)" gradientUnits="userSpaceOnUse"><stop offset="0" stop-color="#c0ddfc"/><stop offset="0.996" stop-color="#fff"/></linearGradient></defs><title>cloud_4</title><g id="Layer_2-i0" data-name="Layer 2"><g id="Layer_1-2-i0" data-name="Layer 1"><path d="M0,25.4C0,2.2,28.781-8.888,44.126,8.513c7.71,8.737,16.153,15.125,29.442,11.894,52.79-12.922,43.025,40.676,86.491,42H30.1A30.1,30.1,0,0,1,0,32.3Z" fill="url(#linear-gradient-i0)"/></g></g>
            </g>
        </g>
    </g>
    
    <!-- ITEM 1 -->
    <g>
        <defs>
            <clipPath id="clip-path-id-viewbox-item-1">
                <rect x="0.0" y="0.0" width="160.059" height="62.405"/>
            </clipPath>
        </defs>
        <g transform="translate(31.0 147.0) rotate(0.0 260.5 100.5) scale(3.255049700422969 3.2208957615575673)">
            <g clip-path="url(#clip-path-id-viewbox-item-1)" transform="translate(-0.0 -0.0)">
                <defs><linearGradient id="linear-gradient-i1" x1="6010.49" y1="1322.02" x2="6010.49" y2="1264.345" gradientTransform="matrix(1, 0, 0, -1, -5930.46, 1322.378)" gradientUnits="userSpaceOnUse"><stop offset="0" stop-color="#c0ddfc"/><stop offset="0.996" stop-color="#fff"/></linearGradient></defs><title>cloud_4</title><g id="Layer_2-i1" data-name="Layer 2"><g id="Layer_1-2-i1" data-name="Layer 1"><path d="M0,25.4C0,2.2,28.781-8.888,44.126,8.513c7.71,8.737,16.153,15.125,29.442,11.894,52.79-12.922,43.025,40.676,86.491,42H30.1A30.1,30.1,0,0,1,0,32.3Z" fill="url(#linear-gradient-i1)"/></g></g>
            </g>
        </g>
    </g>
    
    <!-- ITEM 2 -->
    <g>
        <defs>
            <clipPath id="clip-path-id-viewbox-item-2">
                <rect x="0.0" y="0.0" width="160.059" height="62.405"/>
            </clipPath>
        </defs>
        <g transform="translate(-249.0 524.0) rotate(0.0 357.0 138.0) scale(4.460855059696737 4.422722538258152)">
            <g clip-path="url(#clip-path-id-viewbox-item-2)" transform="translate(-0.0 -0.0)">
                <defs><linearGradient id="linear-gradient-i2" x1="6010.49" y1="1322.02" x2="6010.49" y2="1264.345" gradientTransform="matrix(1, 0, 0, -1, -5930.46, 1322.378)" gradientUnits="userSpaceOnUse"><stop offset="0" stop-color="#c0ddfc"/><stop offset="0.996" stop-color="#fff"/></linearGradient></defs><title>cloud_4</title><g id="Layer_2-i2" data-name="Layer 2"><g id="Layer_1-2-i2" data-name="Layer 1"><path d="M0,25.4C0,2.2,28.781-8.888,44.126,8.513c7.71,8.737,16.153,15.125,29.442,11.894,52.79-12.922,43.025,40.676,86.491,42H30.1A30.1,30.1,0,0,1,0,32.3Z" fill="url(#linear-gradient-i2)"/></g></g>
            </g>
        </g>
    </g>
    
    <!-- ITEM 3 -->
    <g>
        <defs>
            <clipPath id="clip-path-id-viewbox-item-3">
                <rect x="0.0" y="0.0" width="160.059" height="62.405"/>
            </clipPath>
        </defs>
        <g transform="translate(805.0 663.0) rotate(0.0 363.5 140.5) scale(4.54207510980326 4.502844323371525)">
            <g clip-path="url(#clip-path-id-viewbox-item-3)" transform="translate(-0.0 -0.0)">
                <defs><linearGradient id="linear-gradient-i3" x1="6010.49" y1="1322.02" x2="6010.49" y2="1264.345" gradientTransform="matrix(1, 0, 0, -1, -5930.46, 1322.378)" gradientUnits="userSpaceOnUse"><stop offset="0" stop-color="#c0ddfc"/><stop offset="0.996" stop-color="#fff"/></linearGradient></defs><title>cloud_4</title><g id="Layer_2-i3" data-name="Layer 2"><g id="Layer_1-2-i3" data-name="Layer 1"><path d="M0,25.4C0,2.2,28.781-8.888,44.126,8.513c7.71,8.737,16.153,15.125,29.442,11.894,52.79-12.922,43.025,40.676,86.491,42H30.1A30.1,30.1,0,0,1,0,32.3Z" fill="url(#linear-gradient-i3)"/></g></g>
            </g>
        </g>
    </g>
    
    <!-- ITEM 4 -->
    <g>
        <defs>
            <clipPath id="clip-path-id-viewbox-item-4">
                <rect x="0.0" y="0.0" width="160.059" height="62.405"/>
            </clipPath>
        </defs>
        <g transform="translate(949.0 297.0) rotate(0.0 -360.5 139.5) scale(-4.504588932831019 4.470795609326176)">
            <g clip-path="url(#clip-path-id-viewbox-item-4)" transform="translate(-0.0 -0.0)">
                <defs><linearGradient id="linear-gradient-i4" x1="6010.49" y1="1322.02" x2="6010.49" y2="1264.345" gradientTransform="matrix(1, 0, 0, -1, -5930.46, 1322.378)" gradientUnits="userSpaceOnUse"><stop offset="0" stop-color="#c0ddfc"/><stop offset="0.996" stop-color="#fff"/></linearGradient></defs><title>cloud_4</title><g id="Layer_2-i4" data-name="Layer 2"><g id="Layer_1-2-i4" data-name="Layer 1"><path d="M0,25.4C0,2.2,28.781-8.888,44.126,8.513c7.71,8.737,16.153,15.125,29.442,11.894,52.79-12.922,43.025,40.676,86.491,42H30.1A30.1,30.1,0,0,1,0,32.3Z" fill="url(#linear-gradient-i4)"/></g></g>
            </g>
        </g>
    </g>
    
    <!-- ITEM 5 -->
    <g>
        <defs>
            <clipPath id="clip-path-id-viewbox-item-5">
                <rect x="0.0" y="0.0" width="155.14" height="72.317"/>
            </clipPath>
        </defs>
        <g transform="translate(1611.0 1027.0) rotate(0.0 -389.0 180.5) scale(-5.01482531906665 4.991910615761163)">
            <g clip-path="url(#clip-path-id-viewbox-item-5)" transform="translate(-0.0 -0.0)">
                <defs><linearGradient id="linear-gradient-i5" x1="3501.941" y1="1680.677" x2="3501.941" y2="1613.886" gradientTransform="translate(3579.511 1681.116) rotate(180)" gradientUnits="userSpaceOnUse"><stop offset="0" stop-color="#c0ddfc"/><stop offset="0.996" stop-color="#fff"/></linearGradient></defs><title>cloud_5</title><g id="Layer_2-i5" data-name="Layer 2"><g id="Layer_1-2-i5" data-name="Layer 1"><path d="M0,54.035C0,20.188,29.883-15.275,67.988,6.9c37.959,22.027,24.45,56.682,87.152,65.419H0Z" fill="url(#linear-gradient-i5)"/></g></g>
            </g>
        </g>
    </g>
    
    <!-- ITEM 6 -->
    <g>
        <defs>
            <clipPath id="clip-path-id-viewbox-item-6">
                <rect x="0.0" y="0.0" width="596.03" height="720.474"/>
            </clipPath>
        </defs>
        <g transform="translate(-12.0 561.0) rotate(6.907974680495442 297.0 359.0) scale(0.9965941311678943 0.99656614950713)">
            <g clip-path="url(#clip-path-id-viewbox-item-6)" transform="translate(-0.0 -0.0)">
                
<linearGradient id="SVGID_1_-i6" gradientUnits="userSpaceOnUse" x1="230.0474" y1="54.0204" x2="369.8494" y2="846.8768" gradientTransform="matrix(1 0 0 -1 0 815.058)">
	<stop offset="0" style="stop-color:#C0DDFC"/>
	<stop offset="0.7111" style="stop-color:#D3E7FD"/>
	<stop offset="0.996" style="stop-color:#FFFFFF"/>
</linearGradient>
<polygon fill="url(#SVGID_1_-i6)" points="596.03,30.674 225.76,720.474 0,720.474 550.303,0 "/>

            </g>
        </g>
    </g>
    
    <!-- ITEM 7 -->
    <g>
        <defs>
            <clipPath id="clip-path-id-viewbox-item-7">
                <rect x="0.0" y="0.0" width="800.0" height="600.0"/>
            </clipPath>
        </defs>
        <g transform="translate(-70.0 132.0) rotate(0.0 836.0 627.0) scale(2.09 2.09)">
            <g clip-path="url(#clip-path-id-viewbox-item-7)" transform="translate(-0.0 -0.0)">
                
<g opacity="0.3">
	<path fill="#C4ECFE" d="M750.814,2.3v595.331H49.191V2.3H750.814 M753.109,0H46.891v599.926h706.218V0z"/>
	<rect x="217.727" fill="#C4ECFE" width="2.147" height="599.926"/>
	<rect x="307.587" fill="#C4ECFE" width="2.147" height="599.926"/>
	<rect x="217.727" fill="#C4ECFE" width="2.147" height="599.926"/>
	<rect x="127.868" fill="#C4ECFE" width="2.147" height="599.926"/>
	<rect x="397.446" fill="#C4ECFE" width="2.147" height="599.926"/>
	<rect x="487.306" fill="#C4ECFE" width="2.147" height="599.926"/>
	<rect x="576.055" fill="#C4ECFE" width="2.147" height="599.926"/>
	<rect x="664.804" fill="#C4ECFE" width="2.147" height="599.926"/>
</g>

            </g>
        </g>
    </g>
    
    <!-- ITEM 8 -->
    <g>
        <defs>
            <clipPath id="clip-path-id-crop-item-8">
                
          <g transform="scale(1.0034175084175083 1.0034456824512537)">
          <rect x="0.0" y="0.0" width="593.0" height="409.0"/>
          </g>
        
            </clipPath>
            
            <clipPath id="clip-path-id-viewbox-item-8">
                <rect x="0.0" y="0.0" width="596.03" height="720.474"/>
            </clipPath>
        </defs>
        <g clip-path="url(#clip-path-id-crop-item-8)" transform="translate(337.0 851.0) rotate(6.907974680495442 297.0 359.0) scale(0.9965941311678943 0.99656614950713)">
            <g clip-path="url(#clip-path-id-viewbox-item-8)" transform="translate(-0.0 -0.0)">
                
<linearGradient id="SVGID_1_-i8" gradientUnits="userSpaceOnUse" x1="230.0474" y1="54.0204" x2="369.8494" y2="846.8768" gradientTransform="matrix(1 0 0 -1 0 815.058)">
	<stop offset="0" style="stop-color:#C0DDFC"/>
	<stop offset="0.7111" style="stop-color:#D3E7FD"/>
	<stop offset="0.996" style="stop-color:#FFFFFF"/>
</linearGradient>
<polygon fill="url(#SVGID_1_-i8)" points="596.03,30.674 225.76,720.474 0,720.474 550.303,0 "/>

            </g>
        </g>
    </g>
    
    <!-- ITEM 9 -->
    <g>
        <defs>
            <clipPath id="clip-path-id-viewbox-item-9">
                <rect x="0.0" y="0.0" width="160.059" height="62.405"/>
            </clipPath>
        </defs>
        <g transform="translate(520.0 1175.0) rotate(0.0 224.0 86.5) scale(2.798967880594031 2.7722137649226823)">
            <g clip-path="url(#clip-path-id-viewbox-item-9)" transform="translate(-0.0 -0.0)">
                <defs><linearGradient id="linear-gradient-i9" x1="6010.49" y1="1322.02" x2="6010.49" y2="1264.345" gradientTransform="matrix(1, 0, 0, -1, -5930.46, 1322.378)" gradientUnits="userSpaceOnUse"><stop offset="0" stop-color="#c0ddfc"/><stop offset="0.996" stop-color="#fff"/></linearGradient></defs><title>cloud_4</title><g id="Layer_2-i9" data-name="Layer 2"><g id="Layer_1-2-i9" data-name="Layer 1"><path d="M0,25.4C0,2.2,28.781-8.888,44.126,8.513c7.71,8.737,16.153,15.125,29.442,11.894,52.79-12.922,43.025,40.676,86.491,42H30.1A30.1,30.1,0,0,1,0,32.3Z" fill="url(#linear-gradient-i9)"/></g></g>
            </g>
        </g>
    </g>
    
    <!-- ITEM 10 -->
    <g>
        <defs>
            <clipPath id="clip-path-id-viewbox-item-10">
                <rect x="0.0" y="0.0" width="160.059" height="62.405"/>
            </clipPath>
        </defs>
        <g transform="translate(582.0 1037.0) rotate(0.0 -408.5 157.5) scale(-5.1043677643868826 5.047672462142456)">
            <g clip-path="url(#clip-path-id-viewbox-item-10)" transform="translate(-0.0 -0.0)">
                <defs><linearGradient id="linear-gradient-i10" x1="6010.49" y1="1322.02" x2="6010.49" y2="1264.345" gradientTransform="matrix(1, 0, 0, -1, -5930.46, 1322.378)" gradientUnits="userSpaceOnUse"><stop offset="0" stop-color="#c0ddfc"/><stop offset="0.996" stop-color="#fff"/></linearGradient></defs><title>cloud_4</title><g id="Layer_2-i10" data-name="Layer 2"><g id="Layer_1-2-i10" data-name="Layer 1"><path d="M0,25.4C0,2.2,28.781-8.888,44.126,8.513c7.71,8.737,16.153,15.125,29.442,11.894,52.79-12.922,43.025,40.676,86.491,42H30.1A30.1,30.1,0,0,1,0,32.3Z" fill="url(#linear-gradient-i10)"/></g></g>
            </g>
        </g>
    </g>
    
    <!-- ITEM 11 -->
    <g>
        <defs>
            <clipPath id="clip-path-id-viewbox-item-11">
                <rect x="0.0" y="0.0" width="203.134" height="117.927"/>
            </clipPath>
        </defs>
        <g transform="translate(140.0 637.0) rotate(-63.640212770370596 192.5 111.0) scale(1.8953006389870728 1.8825205423694318)">
            <g clip-path="url(#clip-path-id-viewbox-item-11)" transform="translate(-0.0 -0.0)">
                <title>object_3</title><g id="Layer_2-i11" data-name="Layer 2"><g id="Layer_1-2-i11" data-name="Layer 1"><path d="M62.924,63.812c-13.4-2.887-23.615-16.434-33.461-29.463C20.358,22.357,10.956,9.92,0,7.181L1.777,0C15.324,3.331,25.54,16.8,35.386,29.833c9.031,11.993,18.433,24.356,29.167,26.651Z" fill="#f9d5ff"/><path d="M200.839,117.927c-15.4-5.034-28.057-22.282-39.753-39.605l6.144-4.146c10.438,15.472,22.727,32.351,35.9,36.644Z" fill="#f9d5ff"/></g></g>
            </g>
        </g>
    </g>
    
    <!-- ITEM 12 -->
    <g>
        <defs>
            <clipPath id="clip-path-id-crop-item-12">
                
          <g transform="scale(0.41540695296523517 0.41670318021201413)">
          <rect x="3.0" y="0.0" width="308.0" height="283.0"/>
          </g>
        
            </clipPath>
            
            <clipPath id="clip-path-id-viewbox-item-12">
                <rect x="0.0" y="0.0" width="203.134" height="117.927"/>
            </clipPath>
        </defs>
        <g clip-path="url(#clip-path-id-crop-item-12)" transform="translate(1076.0 1115.0) rotate(-34.61028245454475 -244.5 141.5) scale(-2.4072779544537104 2.3997897004078794)">
            <g clip-path="url(#clip-path-id-viewbox-item-12)" transform="translate(-0.0 -0.0)">
                <title>object_3</title><g id="Layer_2-i12" data-name="Layer 2"><g id="Layer_1-2-i12" data-name="Layer 1"><path d="M62.924,63.812c-13.4-2.887-23.615-16.434-33.461-29.463C20.358,22.357,10.956,9.92,0,7.181L1.777,0C15.324,3.331,25.54,16.8,35.386,29.833c9.031,11.993,18.433,24.356,29.167,26.651Z" fill="#f9d5ff"/><path d="M200.839,117.927c-15.4-5.034-28.057-22.282-39.753-39.605l6.144-4.146c10.438,15.472,22.727,32.351,35.9,36.644Z" fill="#f9d5ff"/></g></g>
            </g>
        </g>
    </g>
    
    <!-- ITEM 13 -->
    <g>
        <defs>
            <clipPath id="clip-path-id-viewbox-item-13">
                <rect x="0.0" y="0.0" width="580.85" height="513.125"/>
            </clipPath>
        </defs>
        <g transform="translate(522.0 396.0) rotate(5.1944093395773265 308.5 272.5) scale(1.0622363777223034 1.0621193666260658)">
            <g clip-path="url(#clip-path-id-viewbox-item-13)" transform="translate(-0.0 -0.0)">
                
<g>
	<path fill="#3A3A3A" d="M540.17,348.873c-0.6,1.22-1.25,2.35-1.96,3.4l-38.48,57.04c-0.88,1.31-1.84,2.55-2.84,3.73   c-7.37,8.56-17.85,13.35-28.63,13.82c-5.89,0.26-11.87-0.77-17.49-3.18c-2.2-0.94-4.35-2.1-6.42-3.49l-0.15-0.09l-27.79-18.75   l-0.46-0.31l-12.8-8.64l-348.2-234.85l-0.47-0.32l-6.93-4.67c-1.99-1.35-3.83-2.86-5.5-4.49c-13.6-13.21-16.24-34.8-5.29-51.05   l36.52-54.14c7.6-11.28,24.87-19.06,38.35-17.3l11.98,1.58l17.73,2.31L433.27,78.812c3.513,0.594,6.859,1.932,9.813,3.924   l14.246,9.609l-1.648,61.098c0,0,86.86,162.52,87.03,163.04C545.92,326.073,544.801,339.503,540.17,348.873z"/>
	<g>
		<path fill="#ABABC2" d="M551.607,361.81l-38.473,57.038c-10.826,16.05-31.481,21.744-48.704,14.481    c-2.352-0.983-4.636-2.211-6.826-3.687L60.953,162.097c-18.239-12.302-23.097-37.29-10.794-55.529L86.68,52.423    c7.605-11.275,24.865-19.053,38.347-17.294l322.602,53.427c8.607,1.425,15.849,7.235,19.107,15.328l53.189,132.131l29.007,72.036    l6.62,16.456C559.91,335.337,558.139,352.127,551.607,361.81z"/>
		<path fill="#ABABC2" d="M481.954,491.748l-13.527,20.055c-1.309,1.941-4.239,1.701-5.214-0.428l-12.412-27.089l-60.719-40.955    l-18.722-0.856l-11.043-0.504c-2.339-0.107-3.66-2.733-2.35-4.674l13.527-20.055c0.892-1.323,2.21-2.301,3.734-2.773l18.987-5.876    l24.387-7.543l60.719,40.955l3.807,45.242C483.259,488.836,482.846,490.425,481.954,491.748z"/>
		<g>
			<path fill="#ABABC2" d="M124.505,252.938l-13.527,20.055c-1.309,1.941-4.239,1.701-5.215-0.428l-12.412-27.089l-60.719-40.955     l-18.722-0.856l-11.043-0.504c-2.339-0.107-3.66-2.733-2.35-4.674l13.527-20.055c0.892-1.323,2.21-2.301,3.734-2.773     l18.987-5.876l24.387-7.543l60.719,40.955l3.807,45.242C125.81,250.026,125.397,251.615,124.505,252.938z"/>
			<path fill="#F9D0B5" d="M162.238,143.355l50.764-75.261c7.228-10.716,10.854-23.456,10.353-36.372l0,0     C222.226,2.638,209.51-5.939,182.121,3.909l0,0c-12.163,4.373-22.617,12.509-29.845,23.224l-50.764,75.261L32.629,204.516l0,0     l-1.306,18.03l45.802,30.894l16.228-7.964l0,0L162.238,143.355z"/>
			<g>
				<path fill="#2B2B2B" d="M32.628,206.017c-0.289,0-0.58-0.083-0.838-0.256c-0.687-0.463-0.868-1.396-0.404-2.083l116.29-172.407      c0.463-0.688,1.395-0.868,2.082-0.405c0.687,0.463,0.868,1.396,0.404,2.083L33.872,205.356      C33.583,205.786,33.11,206.017,32.628,206.017z"/>
			</g>
			<g>
				<path fill="#2B2B2B" d="M32.631,206.02c-0.289,0-0.58-0.083-0.838-0.256c-0.687-0.463-0.868-1.396-0.404-2.083l28.122-41.696      c0.463-0.688,1.396-0.867,2.082-0.405c0.687,0.463,0.868,1.396,0.404,2.083l-28.122,41.696      C33.586,205.789,33.113,206.02,32.631,206.02z"/>
			</g>
			<g>
				<path fill="#2B2B2B" d="M93.35,246.976c-0.289,0-0.581-0.083-0.838-0.256c-0.687-0.463-0.868-1.396-0.404-2.083l28.52-42.281      c0.463-0.688,1.397-0.867,2.082-0.405c0.687,0.463,0.868,1.396,0.404,2.083l-28.52,42.281      C94.305,246.744,93.831,246.976,93.35,246.976z"/>
			</g>
		</g>
		<path fill="#F9D0B5" d="M519.687,382.165l50.764-75.261c7.228-10.716,10.854-23.456,10.353-36.372l0,0    c-1.128-29.084-13.845-37.661-41.234-27.813l0,0c-12.163,4.373-22.617,12.509-29.845,23.224l-50.764,75.261l-68.882,102.122l0,0    l-1.306,18.03l45.802,30.894l16.229-7.964l0,0L519.687,382.165z"/>
		<g>
			<path fill="#2B2B2B" d="M390.078,444.828c-0.289,0-0.58-0.083-0.838-0.257c-0.687-0.463-0.868-1.396-0.404-2.082l119.646-177.384     c4.351-6.45,9.8-11.965,16.197-16.394c0.678-0.471,1.614-0.303,2.087,0.38c0.472,0.681,0.302,1.615-0.38,2.087     c-6.089,4.215-11.276,9.465-15.418,15.604L391.323,444.167C391.034,444.596,390.56,444.828,390.078,444.828z"/>
		</g>
		<g>
			<path fill="#2B2B2B" d="M450.8,485.786c-0.289,0-0.581-0.083-0.838-0.257c-0.687-0.463-0.868-1.396-0.404-2.082l28.521-42.28     c0.462-0.688,1.397-0.868,2.082-0.404c0.687,0.463,0.868,1.396,0.404,2.082l-28.521,42.28     C451.755,485.554,451.282,485.786,450.8,485.786z"/>
		</g>
	</g>
</g>

            </g>
        </g>
    </g>
    
    <!-- ITEM 14 -->
    <g>
        <defs>
            <clipPath id="clip-path-id-viewbox-item-14">
                <rect x="0.0" y="0.0" width="1077.196" height="1166.512"/>
            </clipPath>
        </defs>
        <g transform="translate(196.0 108.0) rotate(6.141027577134648 573.0 620.5) scale(1.063873241267142 1.0638553225341874)">
            <g clip-path="url(#clip-path-id-viewbox-item-14)" transform="translate(-0.0 -0.0)">
                
<g>
	<line fill="none" x1="847.99" y1="575.342" x2="847.989" y2="626.342"/>
	
		<linearGradient id="SVGID_1_-i14" gradientUnits="userSpaceOnUse" x1="-13630.8467" y1="4928.5049" x2="-13629.3467" y2="4640.519" gradientTransform="matrix(-1.3753 -1.0093 1.0114 -1.3764 -22789.3672 -6750.4165)">
		<stop offset="0" style="stop-color:#FFE0C2"/>
		<stop offset="0.401" style="stop-color:#7AAEFC"/>
		<stop offset="0.591" style="stop-color:#B8C1FC"/>
		<stop offset="1" style="stop-color:#D2D4D4"/>
	</linearGradient>
	<path fill="url(#SVGID_1_-i14)" d="M993.494,248.502c-125.402,38.826-237.58,89.499-332.132,155.967   c-0.076,0.051-0.152,0.103-0.228,0.156c-24.062,16.605-30.13,49.55-13.554,73.583c16.576,24.034,49.52,30.058,73.583,13.452   c97.916-62.333,195.436-116.698,292.574-163.266L993.494,248.502z"/>
	<path id="SVGID_8_-i0_11_-i14" fill="#BE6361" d="M726.889,369.621c21.702-0.411,38.982-18.331,38.601-40.026l-0.765-51.201   c-0.513-30.68-25.79-55.108-56.478-54.582l0,0c-30.688,0.554-55.158,25.859-54.672,56.539l0.834,55.832   c0.307,19.178,16.104,34.457,35.286,34.131l37.041-0.692C726.787,369.622,726.838,369.622,726.889,369.621z"/>
	<path fill="#BE6361" d="M1013.779,328.271l39.818-16.556c17.447-7.227,27.004-26.115,22.482-44.43   c-5.049-20.449-25.73-32.912-46.188-27.835l-36.235,8.976L1013.779,328.271z"/>
	<path fill="#3A3A3A" d="M712.031,595.627c-3.965,4.987-8.485,9.524-13.607,13.417c-19.147,14.555-47.421,16.827-70.21,9.368   c-0.585-0.191-1.176-0.394-1.775-0.601c-15.641-5.967-30.617-10.841-45.367-18.715c-23.894-12.755-42.523-37.162-45.374-64.034   c-1.635-15.406,1.379-32.323,12.392-43.829c4.955-5.177,10.643-9.718,15.013-15.372c8.919-11.541,7.367-24.278,11.146-37.286   c2.563-8.822,5.799-17.476,9.919-25.715c8.971-17.937,24.635-38.317,47.888-35.301c13.156,1.677,15.242,3.238,46.382,7.237   c13.326,1.712,30.177,3.993,41.169,12.086c10.906,8.029,18.055,20.308,21.776,32.905c6.322,21.402,6.57,47.335,3.632,69.177   c-3.071,22.822-9.251,46.662-17.344,68.328C723.899,577.399,718.763,587.161,712.031,595.627z"/>
	
		<linearGradient id="SVGID_2_-i14" gradientUnits="userSpaceOnUse" x1="-558.5972" y1="-2996.656" x2="-555.5687" y2="-3578.124" gradientTransform="matrix(0.866 0.5 -0.5 0.866 -616.3297 3783.9346)">
		<stop offset="0" style="stop-color:#FFE0C2"/>
		<stop offset="0.401" style="stop-color:#7AAEFC"/>
		<stop offset="0.591" style="stop-color:#B8C1FC"/>
		<stop offset="1" style="stop-color:#D2D4D4"/>
	</linearGradient>
	<path fill="url(#SVGID_2_-i14)" d="M684.658,616.963c-4.761,5.521-10.438,10.236-16.639,14.13c-9.143,5.742-19.425,9.687-30.075,11.469   c-11.838,1.98-24.045,1.196-35.536-2.269c-2.255-0.68-4.481-1.459-6.67-2.331c-0.573-0.227-1.15-0.468-1.736-0.713l-35.608-16.425   c-0.901-0.381-1.782-0.774-2.662-1.19c-0.653-0.308-1.307-0.616-1.946-0.95c-0.209-0.098-0.404-0.199-0.595-0.309l-0.026-0.015   c-0.501-0.254-0.986-0.512-1.476-0.783l-0.026-0.015c-1.947-1.066-3.837-2.215-5.672-3.436c-1.366-0.915-2.694-1.855-3.977-2.851   c-0.433-0.33-0.851-0.665-1.279-1.004c-0.428-0.339-0.841-0.682-1.255-1.025c-0.423-0.348-0.832-0.699-1.24-1.051   c-0.4-0.347-0.804-0.707-1.208-1.067c-0.794-0.724-1.57-1.461-2.34-2.206c-0.381-0.381-0.757-0.749-1.132-1.139   c-1.491-1.519-2.924-3.097-4.286-4.715c-0.338-0.415-0.681-0.821-1.01-1.23c-0.997-1.234-1.956-2.492-2.884-3.766   c-0.616-0.852-1.214-1.717-1.798-2.586c-0.292-0.434-0.57-0.872-0.858-1.315c-1.706-2.625-3.245-5.338-4.627-8.086   c-0.012-0.018-0.011-0.042-0.029-0.051c-0.448-0.904-0.886-1.805-1.319-2.736c-7.848-16.967-9.904-35.325-5.644-49.285   l-1.094-0.505c1.932-10.905,6.22-19.653,11.348-26.877c11.885-16.786,28.221-25.38,29.83-33.688   c0.183-0.876,0.394-1.724,0.633-2.556c1.535-5.28,2.982-10.565,3.928-15.884c1.076-6.064,26.59-82.395,68.994-75.001   c13.184,2.266,15.129,4.035,46.332,9.43c40.505,7.104,68.222,23.857,60.109,79.368c-1.742,11.921-3.25,23.873-4.988,35.794   c-1.66,11.382-3.56,22.736-6.146,33.948c-2.731,11.845-6.241,23.5-10.599,34.849c-5.141,13.387-11.072,26.836-18.39,39.189   C689.188,611.241,687.037,614.203,684.658,616.963z"/>
	<path fill="#BE6361" d="M689.298,429.252c8.907,1.745,17.551-4.063,19.309-12.97l19.704-105.192l-57.519-13.84l-29.648,101.477   l42.153,28.042C685.111,427.987,687.152,428.833,689.298,429.252z"/>
	<polygon fill="#2B2B2B" points="712.841,393.322 693.683,370.252 717.222,369.819  "/>
	
		<ellipse transform="matrix(0.7661 -0.6428 0.6428 0.7661 -12.1023 492.6529)" fill="#2B2B2B" cx="670.753" cy="262.952" rx="28.571" ry="28.532"/>
	
		<ellipse transform="matrix(0.7661 -0.6428 0.6428 0.7661 12.0423 505.9586)" fill="#2B2B2B" cx="701.104" cy="236.436" rx="32.239" ry="32.195"/>
	
		<ellipse transform="matrix(0.766 -0.6429 0.6429 0.766 29.691 539.8898)" fill="#2B2B2B" cx="756.389" cy="229.164" rx="41.467" ry="41.41"/>
	<polygon fill="#2B2B2B" points="688.263,254.214 653.418,282.063 652.748,359.119 672.958,314.992 698.149,313.821    698.725,265.951  "/>
	<path fill="#BE6361" d="M671.301,310.823l-0.498-11.638c-0.002-0.038-0.003-0.076-0.006-0.113   c-0.215-4.911,3.596-9.069,8.506-9.289l0,0c0.034-0.002,0.071-0.004,0.105-0.006c4.912-0.225,9.069,3.572,9.287,8.483l0.498,11.638   c0.002,0.034,0.004,0.068,0.005,0.103c0.218,4.91-3.586,9.072-8.497,9.297l0,0C675.764,319.548,671.56,315.758,671.301,310.823z"/>
	<path fill="#BE6361" d="M548.575,85.968l-5.64-42.716c-2.495-18.702,9.066-36.437,27.194-41.718   c20.239-5.895,41.406,5.722,47.275,25.948l10.408,35.815L548.575,85.968z"/>
	<g>
		<path fill="#2B2B2B" d="M764.86,288.296l0.133,12.361c-2.466-0.51-4.39-2.433-4.9-4.898    C759.426,292.399,761.528,289.107,764.86,288.296z"/>
		
			<ellipse transform="matrix(0.7661 -0.6428 0.6428 0.7661 -19.0207 538.4526)" fill="#2B2B2B" cx="730.213" cy="295.357" rx="6.322" ry="6.313"/>
		<path fill="#2B2B2B" d="M747.134,334.358c-3.614,0.63-7.366-0.644-11.162-3.975c-0.786-0.69-0.862-1.886-0.171-2.673    c0.691-0.787,1.888-0.864,2.674-0.175c2.971,2.472,5.631,3.46,8.007,3.09c2.141-0.544,3.987-1.907,5.138-3.791l0,0    c0.525-0.894,1.677-1.193,2.571-0.67c0.895,0.523,1.191,1.675,0.666,2.57c-1.684,2.755-4.367,4.753-7.488,5.575L747.134,334.358z"/>
		<path fill="#2B2B2B" d="M758.171,301.455c1.08,1.274,1.613,2.924,1.484,4.591c-0.1,1.685-0.893,3.253-2.193,4.334l-5.242,3.296    c-0.17,0.141-0.375,0.228-0.594,0.254c-0.821,0.159-1.647-0.249-2.018-0.992c-0.019-0.029-0.038-0.057-0.054-0.089    c-0.502-0.874-0.199-1.991,0.676-2.494l4.906-3.098c0.973-0.895,1.059-2.401,0.194-3.396l-8.012-9.284l0,0    c-0.664-0.787-0.564-1.965,0.225-2.629c0.789-0.666,1.965-0.567,2.63,0.221"/>
	</g>
	
		<linearGradient id="SVGID_3_-i14" gradientUnits="userSpaceOnUse" x1="-6805.4707" y1="3877.8635" x2="-6803.8589" y2="3568.355" gradientTransform="matrix(1.564 0.6822 0.6845 -1.5646 8666.1543 10806.2061)">
		<stop offset="0" style="stop-color:#FFE0C2"/>
		<stop offset="0.401" style="stop-color:#7AAEFC"/>
		<stop offset="0.591" style="stop-color:#B8C1FC"/>
		<stop offset="1" style="stop-color:#D2D4D4"/>
	</linearGradient>
	<path fill="url(#SVGID_3_-i14)" d="M628.695,63.977c29.297,127.846,41.698,250.209,31.58,365.264c-0.006,0.091-0.014,0.183-0.02,0.276   c-2.307,29.124-28.136,71.044-56.676,77.299c-19.296,4.229-52.707-14.057-48.881-46.736c1.545-13.195,2.821-26.421,3.203-39.7   c3.155-109.612-0.819-235.285-8.543-333.813L628.695,63.977z"/>
	<g>
		<path fill="#2B2B2B" d="M545.517,484.998c-0.401,0-0.802-0.161-1.098-0.478c-0.564-0.606-0.531-1.556,0.075-2.12    c5.69-5.299,10.586-30.639,11.906-61.624c1.21-28.386,1.128-79.625,1.084-105.004c-0.001-0.828,0.669-1.501,1.497-1.502    c0.001,0,0.002,0,0.003,0c0.827,0,1.499,0.67,1.5,1.498c0.044,25.402,0.126,76.684-1.086,105.137    c-1.395,32.715-6.442,57.715-12.859,63.691C546.251,484.865,545.883,484.998,545.517,484.998z"/>
	</g>
	<path fill="#3A3A3A" d="M662.847,390.045c0,0,5.479,10.428,6.499,27.443c4.061,67.749-58.81,138.35-147.988,85.144   c0,0,4.754-12.796,29.706-32.975c92.489,53.398,109.642-57.486,109.642-57.486S662.149,405.106,662.847,390.045z"/>
	
		<linearGradient id="SVGID_4_-i14" gradientUnits="userSpaceOnUse" x1="-374.2107" y1="-95.5301" x2="1179.1273" y2="1197.6368" gradientTransform="matrix(1 0 0 -1 0 1347.2675)">
		<stop offset="0" style="stop-color:#BFE7D1"/>
		<stop offset="0.409" style="stop-color:#E89AC0"/>
		<stop offset="0.499" style="stop-color:#A7A7AE"/>
		<stop offset="0.599" style="stop-color:#47A6D3"/>
		<stop offset="1" style="stop-color:#9774AC"/>
	</linearGradient>
	<path fill="url(#SVGID_4_-i14)" d="M653.992,612.894c-7.61,67.06-98.77,214.36-239.97,341.8c-13.97,12.23-26.543,20.199-35.847,23.796   c-65.082,25.159-168.143,59.654-188.263,66.074c-10.72,3.43-21.44,6.85-32.38,9.89c-5.41,1.57-10.82,3.13-16.34,4.61   c-3.71,0.93-17.36,6.62-25.59,10.11c-3.79,1.61-6.43,2.75-6.43,2.75l-26.46-111.26l13.35-7.42l30.34-16.85l213.81-118.8   c16.72-23.47,36.59-53.52,57.38-86.51c38.91-61.69,81.05-133.65,111.79-192.08L653.992,612.894z"/>
	<path fill="#2B2B2B" d="M607.322,664.814c-29.33,61.18-105.02,166.72-254.6,250.44c-15.24,8.54-46.55,18.78-66.49,20.25   c-76.84,5.65-130.15,2.25-159.83,0.89l213.81-118.8c16.72-23.47,36.59-53.52,57.38-86.51   C483.522,691.344,596.312,655.264,607.322,664.814z"/>
	
		<linearGradient id="SVGID_5_-i14" gradientUnits="userSpaceOnUse" x1="-386.7304" y1="-6.0815" x2="1129.8048" y2="1266.4427" gradientTransform="matrix(1 0 0 -1 0 1347.2675)">
		<stop offset="0" style="stop-color:#BFE7D1"/>
		<stop offset="0.409" style="stop-color:#E89AC0"/>
		<stop offset="0.499" style="stop-color:#A7A7AE"/>
		<stop offset="0.599" style="stop-color:#47A6D3"/>
		<stop offset="1" style="stop-color:#9774AC"/>
	</linearGradient>
	<path fill="url(#SVGID_5_-i14)" d="M684.683,616.985L521.362,502.632c-5.128,7.223-9.416,15.971-11.348,26.877   c-0.404,3.06-0.676,6.305-0.796,9.67c-63.748,70.869-145.83,159.605-205.122,209.936L36.11,820.096l-1.585,107.621   c0,0,26.922-4.345,32.18-4.33c5.376-0.073,10.677-0.249,15.977-0.427c10.676-0.249,21.249-0.892,31.818-1.535   c19.845-1.209,108.932-4.416,188.117-19.497c9.312,1.174,21.538-2.745,37.108-10.67c151.317-79.935,265.094-186.993,294.424-248.17   C655.345,640.587,673.632,629.726,684.683,616.985z"/>
	<g>
		<path fill="#2B2B2B" d="M34.523,929.217c-0.741,0-1.387-0.55-1.485-1.305c-0.107-0.821,0.471-1.575,1.292-1.683    c2.267-0.297,4.533-0.602,6.8-0.907c10.834-1.457,22.036-2.963,33.167-3.593c6.342-0.357,12.787-0.603,19.021-0.84    c6.918-0.263,14.07-0.535,21.092-0.962c2.26-0.138,5.416-0.302,9.353-0.505c29.673-1.538,108.494-5.622,178.575-18.969    c0.155-0.029,0.311-0.034,0.468-0.015c8.522,1.077,20.031-2.269,36.239-10.519c104.501-55.204,201.512-129.048,259.482-197.522    c0.532-0.633,1.48-0.714,2.113-0.176c0.633,0.535,0.711,1.481,0.176,2.113c-26.688,31.525-63.343,65.705-106,98.845    c-46.955,36.479-100.343,70.853-154.391,99.403c-16.642,8.471-28.641,11.92-37.757,10.861    c-70.224,13.349-149.056,17.435-178.752,18.973c-3.925,0.204-7.071,0.367-9.325,0.504c-7.056,0.43-14.226,0.702-21.159,0.966    c-6.22,0.236-12.651,0.48-18.965,0.838c-11.016,0.622-22.16,2.121-32.937,3.57c-2.271,0.306-4.54,0.61-6.81,0.908    C34.654,929.213,34.588,929.217,34.523,929.217z"/>
	</g>
	<path fill="#2B2B2B" d="M17.711,1010.763l19.646-82.286l0.373-108.381l-21.704,0.664C7.055,821.051-0.047,828.425,0,837.401   l1.278,171.482C1.356,1018.694,15.434,1020.306,17.711,1010.763z"/>
	<path fill="#2B2B2B" d="M116.374,1157.55l-3.044-87.944L83.797,960.859l-21.536,6.698c-8.896,2.785-13.968,12.151-11.445,21.136   l48.6,171.543C102.202,1170.045,116.734,1167.751,116.374,1157.55z"/>
</g>

            </g>
        </g>
    </g>
    
</svg>